<?xml version="1.0" encoding="utf-8"?>
<!-- Generator: Adobe Illustrator 25.4.1, SVG Export Plug-In . SVG Version: 6.00 Build 0)  -->
<svg version="1.1" id="Capa_1" xmlns="http://www.w3.org/2000/svg" xmlns:xlink="http://www.w3.org/1999/xlink" x="0px" y="0px"
	 viewBox="0 0 200 200" style="enable-background:new 0 0 200 200;" xml:space="preserve">
<style type="text/css">
	.st0{fill:#9D9D9C;}
	.st1{fill:#706F6F;}
	.st2{fill:#C6C6C6;}
	.st3{fill:#008089;}
	.st4{opacity:0.5;fill:#072446;}
	.st5{fill:#072446;}
	.st6{opacity:0.75;fill:#FFFFFF;}
	.st7{fill:#DADADA;}
	.st8{fill:#B2B2B2;}
</style>
<g>
	<rect x="49.4" y="8.3" class="st0" width="26.8" height="23.2"/>
	<rect x="43.8" class="st1" width="38.1" height="10.3"/>
	<path class="st2" d="M98.2,159.8L98.2,159.8l0-57.9H28.8v57.9h0c0,0.2-0.1,0.4-0.1,0.6c0,5.7,15.6,10.2,34.7,10.2
		c19.2,0,34.7-4.6,34.7-10.2C98.3,160.2,98.2,160,98.2,159.8z"/>
	<ellipse class="st3" cx="63.5" cy="60" rx="42.9" ry="8.2"/>
	<ellipse class="st4" cx="63.5" cy="57.9" rx="37.3" ry="6.1"/>
	<ellipse class="st4" cx="63.5" cy="55.7" rx="31.8" ry="3.6"/>
	<path class="st5" d="M77.7,31.6H49.4c-1.7,0-3,1.3-3,3V54h0c0.1,0.7,7.7,1.2,17.1,1.2c9.4,0,17-0.5,17.1-1.2h0V34.6
		C80.7,33,79.3,31.6,77.7,31.6z"/>
	<path class="st2" d="M106.3,64.6c-1.4,3.4-20,6.2-42.8,6.2c-22.8,0-41.4-2.7-42.8-6.2V98c0,0.2-0.1,0.3-0.1,0.5
		c0,5.2,19.2,9.5,42.8,9.5s42.8-4.3,42.8-9.5c0,0,0,0,0-0.1h0.1V64.6z"/>
	<circle class="st5" cx="63.5" cy="139.7" r="11.4"/>
	<circle class="st6" cx="63.6" cy="139.7" r="10.3"/>
	<path class="st7" d="M135.4,172.4h13.2v-19c0-13.7-11.2-24.9-24.9-24.9H108v13.2h15.6c6.5,0,11.7,5.3,11.7,11.7V172.4z"/>
	<path class="st7" d="M179.4,186.8V200h-19c-13.7,0-24.9-11.2-24.9-24.9v-3.1h13.2v3.1c0,6.5,5.3,11.7,11.7,11.7H179.4z"/>
	<path class="st2" d="M92.3,143.5h15.6v-16H92.3C88.3,132.8,88.1,138.1,92.3,143.5z"/>
	<g>
		<path class="st8" d="M103.1,126.5v18c0,0.5,0.4,0.9,0.9,0.9h6.1c0.5,0,0.9-0.4,0.9-0.9v-18c0-0.5-0.4-0.9-0.9-0.9h-6.1
			C103.5,125.6,103.1,126,103.1,126.5z"/>
		<g>
			<path class="st2" d="M103,140.1c-0.4,0-0.6,0.3-0.6,0.6l0,0c0,0.4,0.3,0.6,0.6,0.6h7.9c0.4,0,0.6-0.3,0.6-0.6l0,0
				c0-0.4-0.3-0.6-0.6-0.6H103z"/>
			<path class="st2" d="M103,129.7c-0.4,0-0.6,0.3-0.6,0.6l0,0c0,0.4,0.3,0.6,0.6,0.6h7.9c0.4,0,0.6-0.3,0.6-0.6l0,0
				c0-0.4-0.3-0.6-0.6-0.6H103z"/>
		</g>
	</g>
	<g>
		<path class="st8" d="M82.2,50.1H44.8c-1,0-1.8-0.7-1.8-1.5V37.9c0-0.9,0.8-1.5,1.8-1.5h37.5c1,0,1.8,0.7,1.8,1.5v10.7
			C84.1,49.4,83.3,50.1,82.2,50.1z"/>
		<g>
			<path class="st2" d="M54,50.1c0,0.6-0.6,1.1-1.3,1.1l0,0c-0.7,0-1.3-0.5-1.3-1.1V36.3c0-0.6,0.6-1.1,1.3-1.1l0,0
				c0.7,0,1.3,0.5,1.3,1.1V50.1z"/>
			<path class="st2" d="M75.7,50.1c0,0.6-0.6,1.1-1.3,1.1l0,0c-0.7,0-1.3-0.5-1.3-1.1V36.3c0-0.6,0.6-1.1,1.3-1.1l0,0
				c0.7,0,1.3,0.5,1.3,1.1V50.1z"/>
		</g>
	</g>
	<rect x="34.2" y="108.9" class="st6" width="1.5" height="58.5"/>
	<rect x="28.8" y="65.8" class="st6" width="1.5" height="44.4"/>
	<g>
		<g>
			<g>
				<path class="st5" d="M98.2,152.7L98.2,152.7c0,0.1,0,0.1,0,0.2V152.7z"/>
			</g>
			<g>
				<path class="st5" d="M98.2,155.1v-1.4c-0.7,5.5-16,9.8-34.7,9.8s-34-4.4-34.7-9.8v1.4h0c0,0.2-0.1,0.4-0.1,0.6
					c0,5.7,15.6,10.2,34.7,10.2c19.2,0,34.7-4.6,34.7-10.2C98.3,155.5,98.2,155.3,98.2,155.1L98.2,155.1z"/>
			</g>
			<g>
				<path class="st5" d="M28.8,152.7L28.8,152.7l0,0.2C28.8,152.8,28.8,152.7,28.8,152.7z"/>
			</g>
		</g>
	</g>
	<g>
		<path class="st5" d="M98.2,159.8L98.2,159.8c0,0.1,0,0.1,0,0.2V159.8z"/>
		<path class="st5" d="M98.2,166.2v-5.4c-0.7,5.5-16,9.8-34.7,9.8c-18.7,0-34-4.4-34.7-9.8v5.4h0c0,0.2-0.1,0.4-0.1,0.6
			c0,5.7,15.6,10.2,34.7,10.2c19.2,0,34.7-4.6,34.7-10.2C98.3,166.6,98.2,166.4,98.2,166.2L98.2,166.2z"/>
		<path class="st5" d="M28.8,159.8L28.8,159.8l0,0.2C28.8,159.9,28.8,159.8,28.8,159.8z"/>
	</g>
	<path class="st5" d="M106.3,99c0,5-19.2,9-42.8,9c-22.9,0-41.5-3.8-42.7-8.6v5c0,0.2-0.1,0.3-0.1,0.5c0,5,19.2,9,42.8,9
		c23.6,0,42.8-4.1,42.8-9c0,0,0,0,0-0.1h0.1L106.3,99L106.3,99C106.3,98.9,106.3,99,106.3,99z"/>
	<path class="st5" d="M106.3,59.8c0,4.6-19.2,8.3-42.9,8.3c-22.9,0-41.6-3.5-42.8-7.8v4.6c0,0.1-0.1,0.3-0.1,0.5
		c0,4.6,19.2,8.3,42.9,8.3c23.7,0,42.9-3.7,42.9-8.3c0,0,0,0,0-0.1h0.1L106.3,59.8L106.3,59.8C106.3,59.8,106.3,59.8,106.3,59.8z"/>
	<circle class="st3" cx="63.5" cy="139.7" r="9"/>
</g>
</svg>
