<svg id="Capa_1" data-name="Capa 1" xmlns="http://www.w3.org/2000/svg" viewBox="0 0 500 500"><defs><style>.cls-1{fill:#c6c6c6;}.cls-2{fill:#9d9d9c;}.cls-3{fill:#706f6f;}.cls-10,.cls-4{fill:#00a99d;}.cls-5{fill:#e94e1b;}.cls-6{fill:#061c33;}.cls-7{fill:#0a8e7e;}.cls-11,.cls-7,.cls-8{opacity:0.5;}.cls-8,.cls-9{fill:#072446;}.cls-10,.cls-13{opacity:0.4;}.cls-11,.cls-13,.cls-15{fill:#fff;}.cls-12{fill:#ededed;}.cls-14{fill:#07192b;opacity:0.48;}.cls-15{opacity:0.75;}</style></defs><rect class="cls-1" x="99.74" y="424.19" width="294.86" height="9.1" rx="2.61"/><rect class="cls-2" x="91.45" y="104.93" width="311.44" height="319.8" rx="3.2"/><rect class="cls-3" x="113.15" y="127.98" width="268.05" height="270.09" rx="11.64"/><rect class="cls-1" x="91.05" y="69.29" width="312.23" height="38.18" rx="6.92"/><circle class="cls-4" cx="129.57" cy="88.38" r="10.15"/><circle class="cls-4" cx="161.61" cy="88.38" r="10.15"/><circle class="cls-4" cx="193.07" cy="88.38" r="10.15"/><rect class="cls-5" x="212.56" y="81.17" width="94.23" height="14.42" rx="2.13"/><rect class="cls-1" x="121.41" y="139.33" width="251.53" height="248.43" rx="5.28" transform="translate(-17.95 509.04) rotate(-89.63)"/><circle class="cls-6" cx="233.21" cy="208.16" r="42.19"/><circle class="cls-7" cx="233.21" cy="208.16" r="26.96"/><circle class="cls-4" cx="212.97" cy="208.16" r="42.19"/><circle class="cls-8" cx="212.97" cy="208.16" r="26.96"/><circle class="cls-9" cx="191.34" cy="208.16" r="42.19"/><circle class="cls-10" cx="190.93" cy="209.38" r="26.96"/><path class="cls-8" d="M167.94,209.38a26.94,26.94,0,0,1,25-26.88c-.65-.05-1.31-.08-2-.08a27,27,0,0,0,0,53.91c.67,0,1.33,0,2-.08A26.94,26.94,0,0,1,167.94,209.38Z"/><path class="cls-6" d="M281.34,347.93A12.31,12.31,0,1,1,274,324.48a79.58,79.58,0,0,1-.88-8.48,20.78,20.78,0,1,0,12.51,39.31A62.83,62.83,0,0,1,281.34,347.93Z"/><path class="cls-9" d="M339.56,311.05H273c-.27,16.11,5.18,40.1,21.53,54.42l11.75,0h0l11.75,0C334.38,351.15,339.83,327.16,339.56,311.05Z"/><path class="cls-11" d="M337.05,311.08h-1.63c-.24,16-6,39.09-19.89,54.42h0C331.87,351.19,337.32,327.19,337.05,311.08Z"/><path class="cls-9" d="M287.19,230.73V219.16a2.23,2.23,0,0,1,2.23-2.24h9.45v-5.17H286.23a4.51,4.51,0,0,0-4.52,4.51v17.27a4.51,4.51,0,0,0,4.52,4.51h12.64V233h-9.45A2.23,2.23,0,0,1,287.19,230.73Z"/><path class="cls-4" d="M294.2,208.26h42.58a0,0,0,0,1,0,0v35.28a6.28,6.28,0,0,1-6.28,6.28h-30a6.28,6.28,0,0,1-6.28-6.28V208.26A0,0,0,0,1,294.2,208.26Z"/><rect class="cls-9" x="291.69" y="202.44" width="47.92" height="6.57" rx="0.97"/><path class="cls-4" d="M151.48,301.29a2.62,2.62,0,0,0-1.38,3.62c9.44,19.11,33.94,27.51,56.43,18.75s34.86-31.51,28.89-52A2.63,2.63,0,0,0,232,270Z"/><path class="cls-9" d="M155,311.59a2.63,2.63,0,0,0-2.11,3.26c5.24,20.66,27.45,34,51.27,30.11s40.67-23.54,39.11-44.8a2.64,2.64,0,0,0-3-2.42Z"/><path class="cls-3" d="M348.62,226.62v14.19a7.85,7.85,0,0,1-7.84,7.87H153.57a7.85,7.85,0,0,1-7.84-7.87V226.62a1.76,1.76,0,0,0-1.76-1.77h0a1.76,1.76,0,0,0-1.75,1.77v18.06a7.85,7.85,0,0,0,7.84,7.87H344.29a7.85,7.85,0,0,0,7.84-7.87V226.62a1.76,1.76,0,0,0-1.76-1.77h0A1.76,1.76,0,0,0,348.62,226.62Z"/><circle class="cls-12" cx="132.01" cy="83.91" r="2.5"/><circle class="cls-12" cx="164.84" cy="83.91" r="2.5"/><circle class="cls-12" cx="197.13" cy="83.91" r="2.5"/><polygon class="cls-13" points="223.71 95.41 216.75 95.41 230.93 81.34 237.88 81.34 223.71 95.41"/><polygon class="cls-13" points="251.83 95.41 244.88 95.41 259.05 81.34 266 81.34 251.83 95.41"/><polygon class="cls-13" points="281.68 95.41 274.73 95.41 288.9 81.34 295.86 81.34 281.68 95.41"/><path class="cls-11" d="M323.74,246.42v1.22a11.84,11.84,0,0,0,11.2-11.8v-.19c0-.14,0-.27,0-.41h-1.48A10.88,10.88,0,0,1,323.74,246.42Z"/><path class="cls-14" d="M232.93,329.46a42.57,42.57,0,0,0,7.13-11l-83,6.37a38.58,38.58,0,0,0,3.71,5.19Z"/><path class="cls-8" d="M235.43,292.83l-81.51,18.11a37.65,37.65,0,0,0,4.89,5.28l70.11-9.9A43.69,43.69,0,0,0,235.43,292.83Z"/><path class="cls-4" d="M154.73,325.77a2.63,2.63,0,0,0-2.61,2.87c1.86,21.24,21.65,37.95,45.79,37.95s43.92-16.71,45.78-37.95a2.63,2.63,0,0,0-2.61-2.87Z"/><path class="cls-15" d="M236,326.62c0,.34,0,.65,0,1a45.4,45.4,0,0,1-18.8,33.23c11.72-6.78,20.2-19.87,21.36-33.05C238.65,326.4,237.31,326.61,236,326.62Z"/><path class="cls-3" d="M348.62,341.15v14.19a7.85,7.85,0,0,1-7.84,7.87H153.57a7.85,7.85,0,0,1-7.84-7.87V341.15a1.76,1.76,0,0,0-1.76-1.76h0a1.75,1.75,0,0,0-1.75,1.76v18.06a7.86,7.86,0,0,0,7.84,7.88H344.29a7.86,7.86,0,0,0,7.84-7.88V341.15a1.76,1.76,0,0,0-1.76-1.76h0A1.75,1.75,0,0,0,348.62,341.15Z"/></svg>