<?xml version="1.0" encoding="utf-8"?>
<!-- Generator: Adobe Illustrator 25.4.1, SVG Export Plug-In . SVG Version: 6.00 Build 0)  -->
<svg version="1.1" id="Capa_1" xmlns="http://www.w3.org/2000/svg" xmlns:xlink="http://www.w3.org/1999/xlink" x="0px" y="0px"
	 viewBox="0 0 200 200" style="enable-background:new 0 0 200 200;" xml:space="preserve">
<style type="text/css">
	.st0{fill:#DADADA;}
	.st1{fill:#C6C6C6;}
	.st2{fill:#EDEDED;}
	.st3{fill:#008089;}
	.st4{opacity:0.75;fill:#FFFFFF;}
	.st5{fill:#B2B2B2;}
</style>
<g>
	<path class="st0" d="M112.9,13.5c0.2,0,0.5,0,0.7,0h0.3c0.3,0,0.5,0,0.7,0c10.1,0.4,18.2,8.7,18.2,18.9v0.3c0,0.3,0,3.1,0.1,3.3
		l-10.7-0.3c0-0.3,0-2.7,0-3v-0.3c0-4.6-3.7-8.3-8.3-8.3h-0.3c-4.6,0-8.3,3.7-8.3,8.3v73.7H94.7V32.5
		C94.7,22.3,102.8,13.9,112.9,13.5z"/>
	<path class="st1" d="M143.3,186.5H56.7c-27.9,0-50.4-22.6-50.4-50.4v-27.9h187.5V136C193.8,163.9,171.2,186.5,143.3,186.5z"/>
	<path class="st2" d="M200,108.2c0,3.9-3.2,7.1-7.1,7.1H7.1c-3.9,0-7.1-3.2-7.1-7.1l0,0c0-3.9,3.2-7.1,7.1-7.1h185.8
		C196.8,101.1,200,104.2,200,108.2L200,108.2z"/>
	<g>
		<rect x="123.6" y="79.6" class="st3" width="26.4" height="2.1"/>
		<path class="st1" d="M128.4,80.6c0,1.6-1.3,2.9-2.9,2.9c-1.6,0-2.9-1.3-2.9-2.9c0-1.6,1.3-2.9,2.9-2.9
			C127.1,77.7,128.4,79,128.4,80.6z"/>
		<path class="st4" d="M126,78.8c-0.1,0-0.3,0-0.4,0c-1,0-1.8,0.8-1.8,1.8c0,1,0.8,1.8,1.8,1.8C124.5,81.4,124.6,79.7,126,78.8z"/>
		<path class="st1" d="M150.9,80.6c0,1.6-1.3,2.9-2.9,2.9c-1.6,0-2.9-1.3-2.9-2.9c0-1.6,1.3-2.9,2.9-2.9
			C149.6,77.7,150.9,79,150.9,80.6z"/>
	</g>
	<rect x="135.1" y="78.8" class="st3" width="3.3" height="7.4"/>
	<rect x="132.5" y="84.7" class="st0" width="8.7" height="16"/>
	<rect x="131.4" y="85.4" class="st3" width="10.9" height="1.4"/>
	<g>
		<path class="st0" d="M143.4,101.3c-4.4,0-8.7,0-13.1,0c-2.2-4.7-2.2-10.2,0-14.9c4.4,0,8.7,0,13.1,0
			C145.6,91.1,145.6,96.6,143.4,101.3z"/>
		<path class="st4" d="M134.3,87.3h-3.4c-1.8,4.2-1.8,8.9,0,13h0.9C130,95.3,131.5,89.6,134.3,87.3z"/>
	</g>
	<path class="st0" d="M140.4,83.5c0.4-0.7,0.7-1.4,0.7-2.3c0-2.4-1.9-4.3-4.3-4.3s-4.3,1.9-4.3,4.3c0,0.8,0.2,1.6,0.7,2.3H140.4z"/>
	<path class="st4" d="M137.3,78c-0.2,0-0.3,0-0.5,0c-1.8,0-3.2,1.5-3.2,3.2c0,0.4,0.1,0.9,0.3,1.3h1.5C134.7,80.7,135.3,79,137.3,78
		z"/>
	<path class="st4" d="M107.1,17.3c-0.2,0-8.4,1.4-9.4,12.2h1.5C98.8,22.5,102.8,19,107.1,17.3z"/>
	<path class="st4" d="M148.3,78.8c-0.1,0-0.3,0-0.4,0c-1,0-1.8,0.8-1.8,1.8c0,1,0.8,1.8,1.8,1.8C146.8,81.4,146.9,79.7,148.3,78.8z"
		/>
	<g>
		<rect x="50.4" y="79.6" class="st3" width="26.4" height="2.1"/>
		<path class="st1" d="M55.2,80.6c0,1.6-1.3,2.9-2.9,2.9c-1.6,0-2.9-1.3-2.9-2.9c0-1.6,1.3-2.9,2.9-2.9C53.9,77.7,55.2,79,55.2,80.6
			z"/>
		<path class="st4" d="M52.7,78.8c-0.1,0-0.3,0-0.4,0c-1,0-1.8,0.8-1.8,1.8c0,1,0.8,1.8,1.8,1.8C51.2,81.4,51.4,79.7,52.7,78.8z"/>
		<path class="st1" d="M77.7,80.6c0,1.6-1.3,2.9-2.9,2.9c-1.6,0-2.9-1.3-2.9-2.9c0-1.6,1.3-2.9,2.9-2.9C76.4,77.7,77.7,79,77.7,80.6
			z"/>
	</g>
	<rect x="61.9" y="78.8" class="st3" width="3.3" height="7.4"/>
	<rect x="59.3" y="84.7" class="st0" width="8.7" height="16"/>
	<rect x="58.2" y="85.4" class="st3" width="10.9" height="1.4"/>
	<g>
		<path class="st0" d="M70.2,101.3c-4.4,0-8.7,0-13.1,0c-2.2-4.7-2.2-10.2,0-14.9c4.4,0,8.7,0,13.1,0
			C72.4,91.1,72.4,96.6,70.2,101.3z"/>
		<path class="st4" d="M61.1,87.3h-3.4c-1.8,4.2-1.8,8.9,0,13h0.9C56.8,95.3,58.3,89.6,61.1,87.3z"/>
	</g>
	<path class="st0" d="M67.2,83.5c0.4-0.7,0.7-1.4,0.7-2.3c0-2.4-1.9-4.3-4.3-4.3c-2.4,0-4.3,1.9-4.3,4.3c0,0.8,0.2,1.6,0.7,2.3H67.2
		z"/>
	<path class="st4" d="M64.1,78c-0.2,0-0.3,0-0.5,0c-1.8,0-3.2,1.5-3.2,3.2c0,0.4,0.1,0.9,0.3,1.3h1.5C61.5,80.7,62,79,64.1,78z"/>
	<path class="st4" d="M75,78.8c-0.1,0-0.3,0-0.4,0c-1,0-1.8,0.8-1.8,1.8c0,1,0.8,1.8,1.8,1.8C73.6,81.4,73.7,79.7,75,78.8z"/>
	<g>
		<path class="st5" d="M122.3,39.6h10.6c0.3,0,0.5-0.2,0.5-0.5v-3.6c0-0.3-0.2-0.5-0.5-0.5h-10.6c-0.3,0-0.5,0.2-0.5,0.5V39
			C121.7,39.3,122,39.6,122.3,39.6z"/>
	</g>
	
		<rect x="97.5" y="31.4" transform="matrix(-1 4.664168e-11 -4.664168e-11 -1 196.8736 130.9708)" class="st4" width="1.8" height="68.2"/>
	<path class="st3" d="M133.4,35h-11.5c-0.2,0-0.4-0.2-0.4-0.4v-1c0-0.2,0.2-0.4,0.4-0.4h11.5c0.2,0,0.4,0.2,0.4,0.4v1
		C133.8,34.8,133.6,35,133.4,35z"/>
</g>
</svg>
