<?xml version="1.0" encoding="utf-8"?>
<!-- Generator: Adobe Illustrator 25.4.1, SVG Export Plug-In . SVG Version: 6.00 Build 0)  -->
<svg version="1.1" id="Capa_1" xmlns="http://www.w3.org/2000/svg" xmlns:xlink="http://www.w3.org/1999/xlink" x="0px" y="0px"
	 viewBox="0 0 200 130.2" style="enable-background:new 0 0 200 130.2;" xml:space="preserve">
<style type="text/css">
	.st0{fill:#072446;}
	.st1{fill:#00A99D;}
	.st2{fill:#008089;}
</style>
<g>
	<path class="st0" d="M0.3,89.1V48.3h18c2,0,3.8,0.3,5.4,1c1.6,0.7,3,1.6,4.1,2.8c1.1,1.2,2,2.6,2.6,4.2c0.6,1.6,0.9,3.3,0.9,5.2
		c0,1.8-0.3,3.6-0.9,5.1c-0.6,1.6-1.5,2.9-2.6,4.1c-1.1,1.1-2.5,2-4.1,2.6c-1.6,0.6-3.4,1-5.4,1H8.9v14.8H0.3z M17,67.3
		c2.5,0,4.2-0.6,5.3-1.7c1.1-1.1,1.6-2.6,1.6-4.4c0-1.7-0.5-3.1-1.6-4.2c-1.1-1.1-2.9-1.7-5.3-1.7H8.9v12H17z"/>
	<path class="st0" d="M37.3,89.1V48.3h8.5v33.4h20.2v7.4H37.3z"/>
	<path class="st0" d="M153.8,89.1v-28l-7.6,28h-8.5l-7.6-27.8v27.8h-7.9V48.3h12.5l7.4,29.9l7.4-29.9h12.3v40.8H153.8z"/>
	<path class="st0" d="M165.8,89.1V48.3h20.1c4,0,7.1,1,9.2,3c2.1,2,3.1,4.7,3.1,8.1c0,1.8-0.5,3.3-1.4,4.7c-0.9,1.4-2.1,2.3-3.6,2.9
		c0.9,0.3,1.7,0.7,2.4,1.3c0.8,0.5,1.4,1.2,2,2c0.6,0.8,1,1.7,1.3,2.8c0.3,1.1,0.5,2.4,0.5,3.8c0,3.7-1.2,6.7-3.7,8.9
		c-2.5,2.2-6.3,3.3-11.5,3.3H165.8z M174.1,55.3v8.8h10.8c3.4,0,5.2-1.5,5.2-4.4c0-1.6-0.4-2.7-1.3-3.4c-0.9-0.7-2.3-1-4.3-1H174.1z
		 M184.9,82.1c2,0,3.5-0.6,4.6-1.7c1.1-1.1,1.7-2.5,1.7-4.2c0-1.8-0.5-3.1-1.6-3.9c-1.1-0.8-2.6-1.2-4.5-1.2h-10.9v11H184.9z"/>
	<path class="st0" d="M136.8,46V6.7h-11.6V0h31.4v6.7h-11.7V46H136.8z"/>
	<path class="st0" d="M172.2,46V0h8.1v39h19.1v7H172.2z"/>
	<g>
		<path class="st1" d="M189.5,130.2c-2.1,0-3.9-0.4-5.5-1c-1.6-0.7-3.1-1.7-4.5-3l-0.6-0.6l1.9-1.9l0.6,0.5c1.2,1.1,2.4,1.9,3.6,2.4
			c1.2,0.5,2.7,0.8,4.5,0.8c2.4,0,4.3-0.6,5.7-1.9c1.4-1.3,2.1-2.9,2.1-5.1c0-1.4-0.2-2.5-0.7-3.4c-0.5-0.8-1.2-1.6-2.3-2.1
			c-1.1-0.6-2.7-1.3-4.7-1.9c-2.2-0.7-4-1.4-5.3-2.2c-1.4-0.8-2.4-1.7-3-2.8c-0.6-1.1-0.9-2.4-0.9-4c0-1.5,0.4-2.9,1.2-4.2
			c0.8-1.2,1.9-2.2,3.3-2.9c1.4-0.7,3-1,4.9-1c1.9,0,3.5,0.3,4.9,0.9h0c1.3,0.6,2.7,1.4,4,2.6l0.6,0.5l-1.8,2.1l-0.6-0.6
			c-1-1-2.1-1.7-3.2-2.1c-1.1-0.4-2.4-0.7-3.9-0.7c-2,0-3.7,0.5-4.9,1.6c-1.2,1-1.8,2.3-1.8,3.9c0,1.1,0.2,2.1,0.6,2.8
			c0.4,0.7,1.1,1.3,2.1,1.9c1.1,0.6,2.6,1.2,4.6,1.8c2.2,0.7,4,1.4,5.3,2.2c1.4,0.8,2.4,1.8,3.1,3.1c0.7,1.2,1,2.8,1,4.6
			c0,1.9-0.5,3.6-1.3,5.1c-0.9,1.5-2.2,2.7-3.7,3.5C193.4,129.8,191.5,130.2,189.5,130.2z"/>
		<polygon class="st1" points="158.5,129.7 142.8,129.7 142.8,96.5 145.5,96.5 145.5,127.1 159,127.1 		"/>
		<polygon class="st1" points="122.1,129.7 106.4,129.7 106.4,96.5 109.1,96.5 109.1,127.1 122.6,127.1 		"/>
		<path class="st2" d="M108.3,97.4v30.5h13.3l-0.2,1h-14.2V97.4H108.3z"/>
		<rect x="83" y="96.5" class="st1" width="2.7" height="33.2"/>
		<polygon class="st1" points="62.1,129.7 58.6,129.7 44.4,113.9 44.4,129.7 41.7,129.7 41.7,96.5 44.4,96.5 44.4,110 57.9,96.5 
			61.5,96.5 46.2,111.9 		"/>
		<path class="st1" d="M10.6,130.2c-2.1,0-3.9-0.4-5.5-1c-1.6-0.7-3.1-1.7-4.5-3L0,125.6l1.9-1.9l0.6,0.5c1.2,1.1,2.4,1.9,3.6,2.4
			c1.2,0.5,2.7,0.8,4.5,0.8c2.4,0,4.3-0.6,5.7-1.9c1.4-1.3,2.1-2.9,2.1-5.1c0-1.4-0.2-2.5-0.7-3.4c-0.5-0.8-1.2-1.6-2.3-2.1
			c-1.1-0.6-2.7-1.3-4.7-1.9c-2.2-0.7-4-1.4-5.3-2.2c-1.4-0.8-2.4-1.7-3-2.8c-0.6-1.1-0.9-2.4-0.9-4c0-1.5,0.4-2.9,1.2-4.2
			c0.8-1.2,1.9-2.2,3.3-2.9c1.4-0.7,3-1,4.9-1c1.9,0,3.5,0.3,4.9,0.9h0c1.3,0.6,2.7,1.4,4,2.6l0.6,0.5l-1.8,2.1l-0.6-0.6
			c-1-1-2.1-1.7-3.2-2.1c-1.1-0.4-2.4-0.7-3.9-0.7c-2,0-3.7,0.5-4.9,1.6c-1.2,1-1.8,2.3-1.8,3.9c0,1.1,0.2,2.1,0.6,2.8
			c0.4,0.7,1.1,1.3,2.1,1.9c1.1,0.6,2.6,1.2,4.6,1.8c2.2,0.7,4,1.4,5.3,2.2c1.4,0.8,2.4,1.8,3.1,3.1c0.7,1.2,1,2.8,1,4.6
			c0,1.9-0.5,3.6-1.3,5.1c-0.9,1.5-2.2,2.7-3.7,3.5C14.5,129.8,12.7,130.2,10.6,130.2z"/>
		<path class="st2" d="M15.6,97.7c1.3,0.5,2.5,1.3,3.8,2.4l-0.7,0.8c-1.1-1.1-2.3-1.8-3.5-2.3c-1.2-0.5-2.6-0.7-4.2-0.7
			c-2.3,0-4.1,0.6-5.4,1.8c-1.4,1.2-2.1,2.7-2.1,4.5c0,1.3,0.3,2.4,0.8,3.2c0.5,0.8,1.3,1.6,2.4,2.2c1.1,0.6,2.7,1.2,4.7,1.9
			c2.2,0.7,3.9,1.4,5.1,2.1c1.3,0.7,2.2,1.7,2.8,2.8c0.6,1.1,0.9,2.5,0.9,4.2c0,1.7-0.4,3.3-1.2,4.6c-0.8,1.4-2,2.4-3.4,3.2
			c-1.5,0.7-3.1,1.1-5,1.1c-2,0-3.7-0.3-5.2-1c-1.5-0.6-2.9-1.6-4.3-2.8l0.7-0.7c1.2,1.1,2.5,2,3.9,2.6c1.3,0.6,3,0.9,4.8,0.9
			c2.6,0,4.7-0.7,6.3-2.1c1.6-1.4,2.4-3.3,2.4-5.7c0-1.5-0.3-2.8-0.8-3.8c-0.6-1-1.4-1.8-2.6-2.5c-1.2-0.7-2.8-1.3-4.8-2
			c-2.2-0.7-3.9-1.4-5.1-2.1c-1.2-0.7-2.1-1.5-2.7-2.5c-0.5-1-0.8-2.1-0.8-3.6c0-1.4,0.4-2.6,1.1-3.7c0.7-1.1,1.7-2,3-2.6
			c1.3-0.6,2.8-0.9,4.5-0.9C12.8,96.9,14.3,97.2,15.6,97.7z"/>
		<path class="st2" d="M43.6,97.4v31.6h-1.1V97.4H43.6z M59.5,97.4l-14.5,14.5l15.2,17H59l-15.2-17l14.5-14.5H59.5z"/>
		<path class="st2" d="M84.9,97.4v31.6h-1.1V97.4H84.9z"/>
		<path class="st2" d="M144.6,97.4v30.5H158l-0.2,1h-14.2V97.4H144.6z"/>
		<path class="st2" d="M194.4,97.7c1.3,0.5,2.5,1.3,3.8,2.4l-0.7,0.8c-1.1-1.1-2.3-1.8-3.5-2.3c-1.2-0.5-2.6-0.7-4.2-0.7
			c-2.3,0-4.1,0.6-5.4,1.8c-1.4,1.2-2.1,2.7-2.1,4.5c0,1.3,0.3,2.4,0.8,3.2c0.5,0.8,1.3,1.6,2.4,2.2c1.1,0.6,2.7,1.2,4.7,1.9
			c2.2,0.7,3.9,1.4,5.1,2.1c1.3,0.7,2.2,1.7,2.8,2.8c0.6,1.1,0.9,2.5,0.9,4.2c0,1.7-0.4,3.3-1.2,4.6c-0.8,1.4-2,2.4-3.4,3.2
			c-1.5,0.7-3.1,1.1-5,1.1c-2,0-3.7-0.3-5.2-1c-1.5-0.6-2.9-1.6-4.3-2.8l0.7-0.7c1.2,1.1,2.5,2,3.9,2.6c1.3,0.6,3,0.9,4.8,0.9
			c2.6,0,4.7-0.7,6.3-2.1c1.6-1.4,2.4-3.3,2.4-5.7c0-1.5-0.3-2.8-0.8-3.8c-0.6-1-1.4-1.8-2.6-2.5c-1.2-0.7-2.8-1.3-4.8-2
			c-2.2-0.7-3.9-1.4-5.1-2.1c-1.2-0.7-2.1-1.5-2.7-2.5c-0.5-1-0.8-2.1-0.8-3.6c0-1.4,0.4-2.6,1.1-3.7c0.7-1.1,1.7-2,3-2.6
			c1.3-0.6,2.8-0.9,4.5-0.9C191.7,96.9,193.2,97.2,194.4,97.7z"/>
	</g>
	<path class="st1" d="M71.7,61.1c0,15.4,6.9,28,22.8,28c15.9,0,22.8-12.5,22.8-28c0,0-4.4,17.4-22.8,17.4
		C76.2,78.5,71.7,61.1,71.7,61.1z"/>
	<path class="st1" d="M94.5,0c-3.7,16.5-11.1,32.8-20.1,45.9c6.4-3.4,12-8.3,16.3-14.1c1.4-1.9,2.7-3.8,3.8-5.8c1.1,2,2.4,4,3.8,5.8
		c4.3,5.8,9.9,10.7,16.3,14.1C105.6,32.8,98.2,16.5,94.5,0z"/>
</g>
</svg>
